name C:/MyDriveSym/Projects/mobilecap/Data\Session20210825_0002\mocap\ForceDataProcessed\walkingTS2_forces.mot
datacolumns 19
datarows 19
range 0.78450000 0.79350000
endheader 
time	R_ground_force_vx	R_ground_force_vy	R_ground_force_vz	R_ground_force_px	R_ground_force_py	R_ground_force_pz	R_ground_torque_x	R_ground_torque_y	R_ground_torque_z	L_ground_force_vx	L_ground_force_vy	L_ground_force_vz	L_ground_force_px	L_ground_force_py	L_ground_force_pz	L_ground_torque_x	L_ground_torque_y	L_ground_torque_z	
          0.78450000	          5.85276300	         29.35575600	         -1.18796500	          0.39984900	          0.00600000	         -0.11892100	          0.00000000	         -0.23826900	          0.00000000	       -102.15940400	        711.87426700	         27.61109600	          0.84991700	          0.00600000	         -0.29328200	          0.00000000	         -0.85121500	          0.00000000	
          0.78500000	          5.68179500	         28.64351200	         -1.15089100	          0.40112400	          0.00600000	         -0.11894400	          0.00000000	         -0.23423000	          0.00000000	       -101.90838600	        711.76195200	         27.63915100	          0.85001200	          0.00600000	         -0.29330700	          0.00000000	         -0.84553100	          0.00000000	
          0.78550000	          5.51291500	         27.93921000	         -1.11418200	          0.40244300	          0.00600000	         -0.11896600	          0.00000000	         -0.23024600	          0.00000000	       -101.65520700	        711.63859500	         27.66656600	          0.85010700	          0.00600000	         -0.29333300	          0.00000000	         -0.83975200	          0.00000000	
          0.78600000	          5.34611100	         27.24282000	         -1.07783800	          0.40380700	          0.00600000	         -0.11898800	          0.00000000	         -0.22631700	          0.00000000	       -101.39989500	        711.50428200	         27.69334600	          0.85020100	          0.00600000	         -0.29335800	          0.00000000	         -0.83387900	          0.00000000	
          0.78650000	          5.18137400	         26.55431100	         -1.04185800	          0.40521900	          0.00600000	         -0.11901000	          0.00000000	         -0.22244300	          0.00000000	       -101.14247500	        711.35909800	         27.71949600	          0.85029600	          0.00600000	         -0.29338300	          0.00000000	         -0.82791300	          0.00000000	
          0.78700000	          5.01869300	         25.87365200	         -1.00624100	          0.40668200	          0.00600000	         -0.11903100	          0.00000000	         -0.21862700	          0.00000000	       -100.88297500	        711.20313100	         27.74502100	          0.85039000	          0.00600000	         -0.29340900	          0.00000000	         -0.82185200	          0.00000000	
          0.78750000	          4.85805800	         25.20081000	         -0.97098700	          0.40819900	          0.00600000	         -0.11905200	          0.00000000	         -0.21487000	          0.00000000	       -100.62142200	        711.03646700	         27.76992400	          0.85048400	          0.00600000	         -0.29343500	          0.00000000	         -0.81569900	          0.00000000	
          0.78800000	          4.69945700	         24.53575500	         -0.93609500	          0.40977400	          0.00600000	         -0.11907200	          0.00000000	         -0.21117200	          0.00000000	       -100.35784200	        710.85919500	         27.79421200	          0.85057800	          0.00600000	         -0.29346100	          0.00000000	         -0.80945400	          0.00000000	
          0.78850000	          4.54288000	         23.87845100	         -0.90156300	          0.41140800	          0.00600000	         -0.11909100	          0.00000000	         -0.20753600	          0.00000000	       -100.09226300	        710.67140100	         27.81788800	          0.85067200	          0.00600000	         -0.29348700	          0.00000000	         -0.80311700	          0.00000000	
          0.78900000	          4.38831500	         23.22886500	         -0.86739100	          0.41310700	          0.00600000	         -0.11911000	          0.00000000	         -0.20396200	          0.00000000	        -99.82471000	        710.47317500	         27.84095700	          0.85076500	          0.00600000	         -0.29351300	          0.00000000	         -0.79668800	          0.00000000	
          0.78950000	          4.23575200	         22.58696300	         -0.83357800	          0.41487500	          0.00600000	         -0.11912800	          0.00000000	         -0.20045400	          0.00000000	        -99.55521200	        710.26460600	         27.86342300	          0.85085900	          0.00600000	         -0.29353900	          0.00000000	         -0.79016900	          0.00000000	
          0.79000000	          4.08517800	         21.95270900	         -0.80012300	          0.41671500	          0.00600000	         -0.11914500	          0.00000000	         -0.19701100	          0.00000000	        -99.28379300	        710.04578300	         27.88529200	          0.85095200	          0.00600000	         -0.29356600	          0.00000000	         -0.78356000	          0.00000000	
          0.79050000	          3.93658200	         21.32606900	         -0.76702500	          0.41863300	          0.00600000	         -0.11916100	          0.00000000	         -0.19363700	          0.00000000	        -99.01048300	        709.81679600	         27.90656700	          0.85104600	          0.00600000	         -0.29359200	          0.00000000	         -0.77686100	          0.00000000	
          0.79100000	          3.78995200	         20.70700600	         -0.73428300	          0.42063300	          0.00600000	         -0.11917700	          0.00000000	         -0.19033400	          0.00000000	        -98.73530600	        709.57773500	         27.92725300	          0.85113900	          0.00600000	         -0.29361900	          0.00000000	         -0.77007300	          0.00000000	
          0.79150000	          3.64527700	         20.09548300	         -0.70189600	          0.42178900	          0.00600000	         -0.11924300	          0.00000000	         -0.18710300	          0.00000000	        -98.45828900	        709.32869100	         27.94735400	          0.85123200	          0.00600000	         -0.29364600	          0.00000000	         -0.76319600	          0.00000000	
          0.79200000	          0.00000000	          0.00000000	          0.00000000	          0.42294500	          0.00000000	         -0.11931000	          0.00000000	          0.00000000	          0.00000000	        -98.17946000	        709.06975500	         27.96687600	          0.85132500	          0.00600000	         -0.29367300	          0.00000000	         -0.75623100	          0.00000000	
          0.79250000	          0.00000000	          0.00000000	          0.00000000	          0.42410100	          0.00000000	         -0.11937600	          0.00000000	          0.00000000	          0.00000000	        -97.89884400	        708.80101700	         27.98582100	          0.85141700	          0.00600000	         -0.29370000	          0.00000000	         -0.74917900	          0.00000000	
          0.79300000	          0.00000000	          0.00000000	          0.00000000	          0.42525800	          0.00000000	         -0.11944300	          0.00000000	          0.00000000	          0.00000000	        -97.61646800	        708.52257100	         28.00419500	          0.85151000	          0.00600000	         -0.29372700	          0.00000000	         -0.74204100	          0.00000000	
          0.79350000	          0.00000000	          0.00000000	          0.00000000	          0.42641400	          0.00000000	         -0.11950900	          0.00000000	          0.00000000	          0.00000000	        -97.33235800	        708.23450800	         28.02200200	          0.85160200	          0.00600000	         -0.29375500	          0.00000000	         -0.73481600	          0.00000000	
